<?xml version="1.0" encoding="utf-8"?>
<!-- Generated by Mocodo 4.2.4 -->
<svg width="592" height="177" viewBox="0 0 592 177" xmlns="http://www.w3.org/2000/svg">
<rect x="0" y="0" width="592" height="177" fill="#f5f5f5" stroke="none" stroke-width="0"/>

<!-- Association POSSEDE -->
<g>
	<line x1="196" y1="126" x2="196" y2="34" stroke="#35978f" stroke-width="2"/>
	<line x1="321" y1="34" x2="196" y2="34" stroke="#35978f" stroke-width="2"/>
	<g>
		<path d="M219 9 a14 14 90 0 1 14 14 V34 h-74 V23 a14 14 90 0 1 14 -14" fill="#80cdc1" stroke="#80cdc1" stroke-width="0"/>
		<path d="M233 34 v11 a14 14 90 0 1 -14 14 H173 a14 14 90 0 1 -14 -14 V34 H74" fill="#c7eae5" stroke="#c7eae5" stroke-width="0"/>
		<rect x="159" y="9" width="74" height="50" fill="none" rx="14" stroke="#35978f" stroke-width="2"/>
		<line x1="159" y1="34" x2="233" y2="34" stroke="#35978f" stroke-width="1"/>
		<text x="167" y="26.75" fill="#000000" font-family="Verdana" font-size="12">POSSÈDE</text>
	</g>
	<text x="201" y="76" fill="#8c510a" font-family="Verdana" font-size="12">0,N</text>
	<text x="260" y="51" fill="#8c510a" font-family="Verdana" font-size="12">1,N</text>
</g>

<!-- Association AFFECTE -->
<g>
	<line x1="445" y1="126" x2="445" y2="34" stroke="#35978f" stroke-width="2"/>
	<line x1="547" y1="34" x2="445" y2="34" stroke="#35978f" stroke-width="2"/>
	<g>
		<path d="M465 9 a14 14 90 0 1 14 14 V34 h-68 V23 a14 14 90 0 1 14 -14" fill="#80cdc1" stroke="#80cdc1" stroke-width="0"/>
		<path d="M479 34 v11 a14 14 90 0 1 -14 14 H425 a14 14 90 0 1 -14 -14 V34 H68" fill="#c7eae5" stroke="#c7eae5" stroke-width="0"/>
		<rect x="411" y="9" width="68" height="50" fill="none" rx="14" stroke="#35978f" stroke-width="2"/>
		<line x1="411" y1="34" x2="479" y2="34" stroke="#35978f" stroke-width="1"/>
		<text x="418" y="26.75" fill="#000000" font-family="Verdana" font-size="12">AFFECTÉ</text>
	</g>
	<text x="450" y="76" fill="#8c510a" font-family="Verdana" font-size="12">0,N</text>
	<text x="484" y="51" fill="#8c510a" font-family="Verdana" font-size="12">0,N</text>
</g>

<!-- Association AFFECTE_ROLE -->
<g>
	<line x1="196" y1="126" x2="63" y2="126" stroke="#35978f" stroke-width="2"/>
	<line x1="63" y1="34" x2="63" y2="126" stroke="#35978f" stroke-width="2"/>
	<g>
		<path d="M103 101 a14 14 90 0 1 14 14 V126 h-108 V115 a14 14 90 0 1 14 -14" fill="#80cdc1" stroke="#80cdc1" stroke-width="0"/>
		<path d="M117 126 v11 a14 14 90 0 1 -14 14 H23 a14 14 90 0 1 -14 -14 V126 H108" fill="#c7eae5" stroke="#c7eae5" stroke-width="0"/>
		<rect x="9" y="101" width="108" height="50" fill="none" rx="14" stroke="#35978f" stroke-width="2"/>
		<line x1="9" y1="126" x2="117" y2="126" stroke="#35978f" stroke-width="1"/>
		<text x="16" y="118.75" fill="#000000" font-family="Verdana" font-size="12">AFFECTÉ_ROLE</text>
	</g>
	<text x="122" y="143" fill="#8c510a" font-family="Verdana" font-size="12">1,N</text>
	<text x="68" y="76" fill="#8c510a" font-family="Verdana" font-size="12">0,N</text>
</g>

<!-- Association APPARTIENT -->
<g>
	<line x1="321" y1="34" x2="321" y2="126" stroke="#35978f" stroke-width="2"/>
	<line x1="445" y1="126" x2="321" y2="126" stroke="#35978f" stroke-width="2"/>
	<g>
		<path d="M353 101 a14 14 90 0 1 14 14 V126 h-92 V115 a14 14 90 0 1 14 -14" fill="#80cdc1" stroke="#80cdc1" stroke-width="0"/>
		<path d="M367 126 v11 a14 14 90 0 1 -14 14 H289 a14 14 90 0 1 -14 -14 V126 H92" fill="#c7eae5" stroke="#c7eae5" stroke-width="0"/>
		<rect x="275" y="101" width="92" height="50" fill="none" rx="14" stroke="#35978f" stroke-width="2"/>
		<line x1="275" y1="126" x2="367" y2="126" stroke="#35978f" stroke-width="1"/>
		<text x="283" y="118.75" fill="#000000" font-family="Verdana" font-size="12">APPARTIENT</text>
	</g>
	<text x="326" y="76" fill="#8c510a" font-family="Verdana" font-size="12">0,N</text>
	<text x="372" y="143" fill="#8c510a" font-family="Verdana" font-size="12">1,N</text>
</g>

<!-- Entity ROLE -->
<g>
	<g>
		<rect x="30" y="9" width="66" height="25" fill="#dfc27d" stroke="none" stroke-width="0" opacity="1"/>
		<rect x="30" y="34" width="66" height="25" fill="#f6e8c3" stroke="none" stroke-width="0" opacity="1"/>
		<rect x="30" y="9" width="66" height="50" fill="none" stroke="#bf812d" stroke-width="2" opacity="1"/>
		<line x1="30" y1="34" x2="96" y2="34" stroke="#bf812d" stroke-width="1"/>
	</g>
	<text x="47" y="26.75" fill="#000000" font-family="Verdana" font-size="12">ROLE</text>
	<text x="35" y="51.8" fill="#000000" font-family="Verdana" font-size="12">NomRole</text>
	<line x1="35" y1="54" x2="90" y2="54" stroke="#000000" stroke-width="1"/>
</g>

<!-- Entity LISTE -->
<g>
	<g>
		<rect x="287" y="9" width="68" height="25" fill="#dfc27d" stroke="none" stroke-width="0" opacity="1"/>
		<rect x="287" y="34" width="68" height="25" fill="#f6e8c3" stroke="none" stroke-width="0" opacity="1"/>
		<rect x="287" y="9" width="68" height="50" fill="none" stroke="#bf812d" stroke-width="2" opacity="1"/>
		<line x1="287" y1="34" x2="355" y2="34" stroke="#bf812d" stroke-width="1"/>
	</g>
	<text x="303" y="26.75" fill="#000000" font-family="Verdana" font-size="12">LISTE</text>
	<text x="292" y="51.8" fill="#000000" font-family="Verdana" font-size="12">NomListe</text>
	<line x1="292" y1="54" x2="349" y2="54" stroke="#000000" stroke-width="1"/>
</g>

<!-- Entity LABEL -->
<g>
	<g>
		<rect x="511" y="9" width="72" height="25" fill="#dfc27d" stroke="none" stroke-width="0" opacity="1"/>
		<rect x="511" y="34" width="72" height="25" fill="#f6e8c3" stroke="none" stroke-width="0" opacity="1"/>
		<rect x="511" y="9" width="72" height="50" fill="none" stroke="#bf812d" stroke-width="2" opacity="1"/>
		<line x1="511" y1="34" x2="583" y2="34" stroke="#bf812d" stroke-width="1"/>
	</g>
	<text x="528" y="26.75" fill="#000000" font-family="Verdana" font-size="12">LABEL</text>
	<text x="516" y="51.8" fill="#000000" font-family="Verdana" font-size="12">NomLabel</text>
	<line x1="516" y1="54" x2="577" y2="54" stroke="#000000" stroke-width="1"/>
</g>

<!-- Entity UTILISATEUR -->
<g>
	<g>
		<rect x="149" y="84" width="94" height="25" fill="#dfc27d" stroke="none" stroke-width="0" opacity="1"/>
		<rect x="149" y="109" width="94" height="59" fill="#f6e8c3" stroke="none" stroke-width="0" opacity="1"/>
		<rect x="149" y="84" width="94" height="84" fill="none" stroke="#bf812d" stroke-width="2" opacity="1"/>
		<line x1="149" y1="109" x2="243" y2="109" stroke="#bf812d" stroke-width="1"/>
	</g>
	<text x="155" y="101.75" fill="#000000" font-family="Verdana" font-size="12">UTILISATEUR</text>
	<text x="154" y="126.8" fill="#000000" font-family="Verdana" font-size="12">Nom</text>
	<line x1="154" y1="129" x2="183" y2="129" stroke="#000000" stroke-width="1"/>
	<text x="154" y="143.8" fill="#000000" font-family="Verdana" font-size="12">Email</text>
	<text x="154" y="160.8" fill="#000000" font-family="Verdana" font-size="12">MotDePasse</text>
</g>

<!-- Entity CARTE -->
<g>
	<g>
		<rect x="399" y="84" width="92" height="25" fill="#dfc27d" stroke="none" stroke-width="0" opacity="1"/>
		<rect x="399" y="109" width="92" height="59" fill="#f6e8c3" stroke="none" stroke-width="0" opacity="1"/>
		<rect x="399" y="84" width="92" height="84" fill="none" stroke="#bf812d" stroke-width="2" opacity="1"/>
		<line x1="399" y1="109" x2="491" y2="109" stroke="#bf812d" stroke-width="1"/>
	</g>
	<text x="425" y="101.75" fill="#000000" font-family="Verdana" font-size="12">CARTE</text>
	<text x="404" y="126.8" fill="#000000" font-family="Verdana" font-size="12">TitreCarte</text>
	<line x1="404" y1="129" x2="465" y2="129" stroke="#000000" stroke-width="1"/>
	<text x="404" y="143.8" fill="#000000" font-family="Verdana" font-size="12">PositionCarte</text>
	<text x="404" y="160.8" fill="#000000" font-family="Verdana" font-size="12">CouleurCarte</text>
</g>
</svg>