<?xml version="1.0" encoding="utf-8"?>
<!-- Generated by Mocodo 4.2.4 -->
<svg width="603" height="229" viewBox="0 0 603 229" xmlns="http://www.w3.org/2000/svg">
<rect x="0" y="0" width="603" height="229" fill="#f7f7f7" stroke="none" stroke-width="0"/>

<!-- Association POSSEDE -->
<g>
	<line x1="203" y1="169" x2="203" y2="51" stroke="#9970ab" stroke-width="2"/>
	<line x1="335" y1="51" x2="203" y2="51" stroke="#9970ab" stroke-width="2"/>
	<g>
		<path d="M226 26 a14 14 90 0 1 14 14 V51 h-74 V40 a14 14 90 0 1 14 -14" fill="#c2a5cf" stroke="#c2a5cf" stroke-width="0"/>
		<path d="M240 51 v11 a14 14 90 0 1 -14 14 H180 a14 14 90 0 1 -14 -14 V51 H74" fill="#e7d4e8" stroke="#e7d4e8" stroke-width="0"/>
		<rect x="166" y="26" width="74" height="50" fill="none" rx="14" stroke="#9970ab" stroke-width="2"/>
		<line x1="166" y1="51" x2="240" y2="51" stroke="#9970ab" stroke-width="1"/>
		<text x="174" y="43.75" fill="#000000" font-family="Verdana" font-size="12">POSSÈDE</text>
	</g>
	<text x="208" y="110" fill="#1b7837" font-family="Verdana" font-size="12">0,N</text>
	<text x="272" y="68" fill="#1b7837" font-family="Verdana" font-size="12">1,N</text>
</g>

<!-- Association AFFECTE -->
<g>
	<line x1="452" y1="169" x2="452" y2="51" stroke="#9970ab" stroke-width="2"/>
	<line x1="556" y1="51" x2="452" y2="51" stroke="#9970ab" stroke-width="2"/>
	<g>
		<path d="M472 26 a14 14 90 0 1 14 14 V51 h-68 V40 a14 14 90 0 1 14 -14" fill="#c2a5cf" stroke="#c2a5cf" stroke-width="0"/>
		<path d="M486 51 v11 a14 14 90 0 1 -14 14 H432 a14 14 90 0 1 -14 -14 V51 H68" fill="#e7d4e8" stroke="#e7d4e8" stroke-width="0"/>
		<rect x="418" y="26" width="68" height="50" fill="none" rx="14" stroke="#9970ab" stroke-width="2"/>
		<line x1="418" y1="51" x2="486" y2="51" stroke="#9970ab" stroke-width="1"/>
		<text x="425" y="43.75" fill="#000000" font-family="Verdana" font-size="12">AFFECTÉ</text>
	</g>
	<text x="457" y="110" fill="#1b7837" font-family="Verdana" font-size="12">0,N</text>
	<text x="491" y="68" fill="#1b7837" font-family="Verdana" font-size="12">0,N</text>
</g>

<!-- Association AFFECTE_ROLE -->
<g>
	<line x1="203" y1="169" x2="63" y2="169" stroke="#9970ab" stroke-width="2"/>
	<line x1="63" y1="51" x2="63" y2="169" stroke="#9970ab" stroke-width="2"/>
	<g>
		<path d="M103 144 a14 14 90 0 1 14 14 V169 h-108 V158 a14 14 90 0 1 14 -14" fill="#c2a5cf" stroke="#c2a5cf" stroke-width="0"/>
		<path d="M117 169 v11 a14 14 90 0 1 -14 14 H23 a14 14 90 0 1 -14 -14 V169 H108" fill="#e7d4e8" stroke="#e7d4e8" stroke-width="0"/>
		<rect x="9" y="144" width="108" height="50" fill="none" rx="14" stroke="#9970ab" stroke-width="2"/>
		<line x1="9" y1="169" x2="117" y2="169" stroke="#9970ab" stroke-width="1"/>
		<text x="16" y="161.75" fill="#000000" font-family="Verdana" font-size="12">AFFECTÉ_ROLE</text>
	</g>
	<text x="122" y="186" fill="#1b7837" font-family="Verdana" font-size="12">1,N</text>
	<text x="68" y="102" fill="#1b7837" font-family="Verdana" font-size="12">0,N</text>
</g>

<!-- Association APPARTIENT -->
<g>
	<line x1="335" y1="51" x2="335" y2="169" stroke="#9970ab" stroke-width="2"/>
	<line x1="452" y1="169" x2="335" y2="169" stroke="#9970ab" stroke-width="2"/>
	<g>
		<path d="M367 144 a14 14 90 0 1 14 14 V169 h-92 V158 a14 14 90 0 1 14 -14" fill="#c2a5cf" stroke="#c2a5cf" stroke-width="0"/>
		<path d="M381 169 v11 a14 14 90 0 1 -14 14 H303 a14 14 90 0 1 -14 -14 V169 H92" fill="#e7d4e8" stroke="#e7d4e8" stroke-width="0"/>
		<rect x="289" y="144" width="92" height="50" fill="none" rx="14" stroke="#9970ab" stroke-width="2"/>
		<line x1="289" y1="169" x2="381" y2="169" stroke="#9970ab" stroke-width="1"/>
		<text x="297" y="161.75" fill="#000000" font-family="Verdana" font-size="12">APPARTIENT</text>
	</g>
	<text x="340" y="110" fill="#1b7837" font-family="Verdana" font-size="12">0,N</text>
	<text x="387" y="186" fill="#1b7837" font-family="Verdana" font-size="12">1,1</text>
</g>

<!-- Entity ROLE -->
<g>
	<g>
		<rect x="28" y="17" width="70" height="25" fill="#a6dba0" stroke="none" stroke-width="0" opacity="1"/>
		<rect x="28" y="42" width="70" height="43" fill="#d9f0d3" stroke="none" stroke-width="0" opacity="1"/>
		<rect x="28" y="17" width="70" height="68" fill="none" stroke="#5aae61" stroke-width="2" opacity="1"/>
		<line x1="28" y1="42" x2="98" y2="42" stroke="#5aae61" stroke-width="1"/>
	</g>
	<text x="47" y="34.75" fill="#000000" font-family="Verdana" font-size="12">ROLE</text>
	<text x="33" y="59.8" fill="#000000" font-family="Verdana" font-size="12">code_role</text>
	<line x1="33" y1="62" x2="93" y2="62" stroke="#000000" stroke-width="1"/>
	<text x="33" y="76.8" fill="#000000" font-family="Verdana" font-size="12">role</text>
</g>

<!-- Entity LISTE -->
<g>
	<g>
		<rect x="299" y="9" width="72" height="25" fill="#a6dba0" stroke="none" stroke-width="0" opacity="1"/>
		<rect x="299" y="34" width="72" height="59" fill="#d9f0d3" stroke="none" stroke-width="0" opacity="1"/>
		<rect x="299" y="9" width="72" height="84" fill="none" stroke="#5aae61" stroke-width="2" opacity="1"/>
		<line x1="299" y1="34" x2="371" y2="34" stroke="#5aae61" stroke-width="1"/>
	</g>
	<text x="317" y="26.75" fill="#000000" font-family="Verdana" font-size="12">LISTE</text>
	<text x="304" y="51.8" fill="#000000" font-family="Verdana" font-size="12">code_liste</text>
	<line x1="304" y1="54" x2="366" y2="54" stroke="#000000" stroke-width="1"/>
	<text x="304" y="68.8" fill="#000000" font-family="Verdana" font-size="12">nom</text>
	<text x="304" y="85.8" fill="#000000" font-family="Verdana" font-size="12">ordre</text>
</g>

<!-- Entity LABEL -->
<g>
	<g>
		<rect x="518" y="9" width="76" height="25" fill="#a6dba0" stroke="none" stroke-width="0" opacity="1"/>
		<rect x="518" y="34" width="76" height="59" fill="#d9f0d3" stroke="none" stroke-width="0" opacity="1"/>
		<rect x="518" y="9" width="76" height="84" fill="none" stroke="#5aae61" stroke-width="2" opacity="1"/>
		<line x1="518" y1="34" x2="594" y2="34" stroke="#5aae61" stroke-width="1"/>
	</g>
	<text x="537" y="26.75" fill="#000000" font-family="Verdana" font-size="12">LABEL</text>
	<text x="523" y="51.8" fill="#000000" font-family="Verdana" font-size="12">code_label</text>
	<line x1="523" y1="54" x2="588" y2="54" stroke="#000000" stroke-width="1"/>
	<text x="523" y="68.8" fill="#000000" font-family="Verdana" font-size="12">nom</text>
	<text x="523" y="85.8" fill="#000000" font-family="Verdana" font-size="12">couleur</text>
</g>

<!-- Entity UTILISATEUR -->
<g>
	<g>
		<rect x="149" y="118" width="108" height="25" fill="#a6dba0" stroke="none" stroke-width="0" opacity="1"/>
		<rect x="149" y="143" width="108" height="77" fill="#d9f0d3" stroke="none" stroke-width="0" opacity="1"/>
		<rect x="149" y="118" width="108" height="102" fill="none" stroke="#5aae61" stroke-width="2" opacity="1"/>
		<line x1="149" y1="143" x2="257" y2="143" stroke="#5aae61" stroke-width="1"/>
	</g>
	<text x="162" y="135.75" fill="#000000" font-family="Verdana" font-size="12">UTILISATEUR</text>
	<text x="154" y="160.8" fill="#000000" font-family="Verdana" font-size="12">code_utilisateur</text>
	<line x1="154" y1="163" x2="251" y2="163" stroke="#000000" stroke-width="1"/>
	<text x="154" y="177.8" fill="#000000" font-family="Verdana" font-size="12">Nom</text>
	<text x="154" y="194.8" fill="#000000" font-family="Verdana" font-size="12">Email</text>
	<text x="154" y="211.8" fill="#000000" font-family="Verdana" font-size="12">Mot_De_Passe</text>
</g>

<!-- Entity CARTE -->
<g>
	<g>
		<rect x="413" y="118" width="78" height="25" fill="#a6dba0" stroke="none" stroke-width="0" opacity="1"/>
		<rect x="413" y="143" width="78" height="77" fill="#d9f0d3" stroke="none" stroke-width="0" opacity="1"/>
		<rect x="413" y="118" width="78" height="102" fill="none" stroke="#5aae61" stroke-width="2" opacity="1"/>
		<line x1="413" y1="143" x2="491" y2="143" stroke="#5aae61" stroke-width="1"/>
	</g>
	<text x="432" y="135.75" fill="#000000" font-family="Verdana" font-size="12">CARTE</text>
	<text x="418" y="160.8" fill="#000000" font-family="Verdana" font-size="12">code_carte</text>
	<line x1="418" y1="163" x2="485" y2="163" stroke="#000000" stroke-width="1"/>
	<text x="418" y="177.8" fill="#000000" font-family="Verdana" font-size="12">titre</text>
	<text x="418" y="194.8" fill="#000000" font-family="Verdana" font-size="12">ordre</text>
	<text x="418" y="211.8" fill="#000000" font-family="Verdana" font-size="12">couleur</text>
</g>
</svg>