<?xml version="1.0" encoding="utf-8"?>
<!-- Generated by Mocodo 4.2.4 -->
<svg width="257" height="345" viewBox="0 0 257 345" xmlns="http://www.w3.org/2000/svg">
<rect x="0" y="0" width="257" height="345" fill="#f7f7f7" stroke="none" stroke-width="0"/>

<!-- Association POSSEDE -->
<g>
	<line x1="52" y1="60" x2="52" y2="161" stroke="#7fbc41" stroke-width="2"/>
	<line x1="183" y1="60" x2="52" y2="161" stroke="#7fbc41" stroke-width="2"/>
	<g>
		<path d="M75 136 a14 14 90 0 1 14 14 V161 h-74 V150 a14 14 90 0 1 14 -14" fill="#b8e186" stroke="#b8e186" stroke-width="0"/>
		<path d="M89 161 v11 a14 14 90 0 1 -14 14 H29 a14 14 90 0 1 -14 -14 V161 H74" fill="#e6f5d0" stroke="#e6f5d0" stroke-width="0"/>
		<rect x="15" y="136" width="74" height="50" fill="none" rx="14" stroke="#7fbc41" stroke-width="2"/>
		<line x1="15" y1="161" x2="89" y2="161" stroke="#7fbc41" stroke-width="1"/>
		<text x="23" y="153.75" fill="#000000" font-family="Verdana" font-size="12">POSSÈDE</text>
	</g>
	<text x="57" y="102" fill="#c51b7d" font-family="Verdana" font-size="12">0,N</text>
	<text x="91" y="107.9" fill="#c51b7d" font-family="Verdana" font-size="12">1,N</text>
</g>

<!-- Association OPTIONNEL -->
<g>
	<line x1="183" y1="60" x2="102" y2="311" stroke="#7fbc41" stroke-width="2"/>
	<line x1="52" y1="236" x2="102" y2="311" stroke="#7fbc41" stroke-width="2"/>
	<g>
		<path d="M131 286 a14 14 90 0 1 14 14 V311 h-86 V300 a14 14 90 0 1 14 -14" fill="#b8e186" stroke="#b8e186" stroke-width="0"/>
		<path d="M145 311 v11 a14 14 90 0 1 -14 14 H73 a14 14 90 0 1 -14 -14 V311 H86" fill="#e6f5d0" stroke="#e6f5d0" stroke-width="0"/>
		<rect x="59" y="286" width="86" height="50" fill="none" rx="14" stroke="#7fbc41" stroke-width="2"/>
		<line x1="59" y1="311" x2="145" y2="311" stroke="#7fbc41" stroke-width="1"/>
		<text x="66" y="303.75" fill="#000000" font-family="Verdana" font-size="12">OPTIONNEL</text>
	</g>
	<text x="169.03" y="128" fill="#c51b7d" font-family="Verdana" font-size="12">0,N</text>
	<text x="46.78" y="278" fill="#c51b7d" font-family="Verdana" font-size="12">0,N</text>
</g>

<!-- Entity LISTE -->
<g>
	<g>
		<rect x="18" y="35" width="68" height="25" fill="#f1b6da" stroke="none" stroke-width="0" opacity="1"/>
		<rect x="18" y="60" width="68" height="25" fill="#fde0ef" stroke="none" stroke-width="0" opacity="1"/>
		<rect x="18" y="35" width="68" height="50" fill="none" stroke="#de77ae" stroke-width="2" opacity="1"/>
		<line x1="18" y1="60" x2="86" y2="60" stroke="#de77ae" stroke-width="1"/>
	</g>
	<text x="34" y="52.75" fill="#000000" font-family="Verdana" font-size="12">LISTE</text>
	<text x="23" y="77.8" fill="#000000" font-family="Verdana" font-size="12">NomListe</text>
	<line x1="23" y1="80" x2="80" y2="80" stroke="#000000" stroke-width="1"/>
</g>

<!-- Entity CARTES -->
<g>
	<g>
		<rect x="118" y="9" width="130" height="25" fill="#f1b6da" stroke="none" stroke-width="0" opacity="1"/>
		<rect x="118" y="34" width="130" height="77" fill="#fde0ef" stroke="none" stroke-width="0" opacity="1"/>
		<rect x="118" y="9" width="130" height="102" fill="none" stroke="#de77ae" stroke-width="2" opacity="1"/>
		<line x1="118" y1="34" x2="248" y2="34" stroke="#de77ae" stroke-width="1"/>
	</g>
	<text x="159" y="26.75" fill="#000000" font-family="Verdana" font-size="12">CARTES</text>
	<text x="123" y="51.8" fill="#000000" font-family="Verdana" font-size="12">Titre</text>
	<line x1="123" y1="54" x2="152" y2="54" stroke="#000000" stroke-width="1"/>
	<text x="123" y="68.8" fill="#000000" font-family="Verdana" font-size="12">Position</text>
	<text x="123" y="85.8" fill="#000000" font-family="Verdana" font-size="12">Couleur (Optionnel)</text>
	<text x="123" y="102.8" fill="#000000" font-family="Verdana" font-size="12">Labels (Optionnel)</text>
</g>

<!-- Entity LABEL -->
<g>
	<g>
		<rect x="16" y="211" width="72" height="25" fill="#f1b6da" stroke="none" stroke-width="0" opacity="1"/>
		<rect x="16" y="236" width="72" height="25" fill="#fde0ef" stroke="none" stroke-width="0" opacity="1"/>
		<rect x="16" y="211" width="72" height="50" fill="none" stroke="#de77ae" stroke-width="2" opacity="1"/>
		<line x1="16" y1="236" x2="88" y2="236" stroke="#de77ae" stroke-width="1"/>
	</g>
	<text x="33" y="228.75" fill="#000000" font-family="Verdana" font-size="12">LABEL</text>
	<text x="21" y="253.8" fill="#000000" font-family="Verdana" font-size="12">NomLabel</text>
	<line x1="21" y1="256" x2="82" y2="256" stroke="#000000" stroke-width="1"/>
</g>
</svg>